<?xml version="1.0" standalone="no"?>
<!DOCTYPE svg PUBLIC "-//W3C//DTD SVG 20010904//EN"
 "http://www.w3.org/TR/2001/REC-SVG-20010904/DTD/svg10.dtd">
<svg version="1.0" xmlns="http://www.w3.org/2000/svg"
 width="823.000000pt" height="823.000000pt" viewBox="0 0 823.000000 823.000000"
 preserveAspectRatio="xMidYMid meet">
<metadata>
Created by potrace 1.14, written by Peter Selinger 2001-2017
</metadata>
<g transform="translate(0.000000,823.000000) scale(0.100000,-0.100000)"
fill="#000000" stroke="none">
<path d="M3869 8225 c-2 -2 -47 -6 -99 -9 -52 -3 -106 -8 -120 -10 -25 -5 -87
-13 -165 -22 -22 -3 -85 -14 -140 -25 -55 -11 -111 -22 -125 -25 -14 -3 -43
-10 -65 -16 -22 -5 -47 -11 -55 -13 -19 -4 -102 -27 -195 -54 -259 -75 -645
-247 -900 -400 -339 -204 -682 -487 -951 -786 -104 -116 -111 -125 -228 -280
-334 -446 -562 -918 -694 -1440 -37 -143 -82 -357 -87 -410 -2 -27 -16 -134
-20 -163 -27 -171 -27 -672 -1 -907 7 -63 19 -151 22 -170 6 -28 11 -63 19
-115 3 -25 10 -58 15 -75 5 -16 11 -43 14 -60 2 -16 9 -52 16 -80 6 -27 14
-61 16 -74 3 -14 7 -28 10 -33 3 -4 7 -16 9 -25 37 -168 159 -490 275 -728 84
-173 282 -509 320 -545 3 -3 13 -16 22 -31 24 -38 197 -258 239 -304 20 -22
62 -69 94 -105 126 -139 341 -336 515 -471 620 -479 1392 -776 2171 -836 200
-15 617 -9 779 12 19 3 58 7 85 10 28 3 57 8 65 10 8 2 33 6 55 9 199 23 688
160 879 245 23 11 66 29 96 42 173 72 435 215 632 345 88 58 289 206 324 239
6 5 30 26 54 45 267 219 570 562 776 875 145 222 235 386 337 616 85 193 198
521 223 649 3 14 13 59 24 100 10 41 29 145 43 230 44 269 52 364 52 675 0
220 -7 389 -20 453 -2 12 -7 52 -10 89 -4 37 -9 70 -10 73 -2 3 -6 26 -10 50
-78 548 -332 1180 -667 1662 -113 162 -138 196 -224 298 -245 292 -490 519
-799 739 -387 277 -880 506 -1335 621 -108 27 -153 37 -245 55 -85 17 -273 45
-335 50 -41 4 -84 9 -95 12 -23 6 -581 14 -586 8z"/>
</g>
</svg>
